<svg xmlns="http://www.w3.org/2000/svg" width="48" height="48" fill="none"><rect width="47" height="47" x=".5" y=".5" stroke="#F7F8F8" rx="7.5"/><path fill="#000" d="M23.997 10.668a13.334 13.334 0 1 0 0 26.668 13.334 13.334 0 0 0 0-26.668zm0 2.667a10.587 10.587 0 0 1 7.347 2.96 33.235 33.235 0 0 1-6.44 2.906 38.764 38.764 0 0 0-3.827-5.453c.95-.273 1.933-.412 2.92-.413zm-5.48 1.533a36.218 36.218 0 0 1 3.747 5.133c-2.617.65-5.303.982-8 .987h-.48a10.666 10.666 0 0 1 4.733-6.12zm-2.52 16.213a10.534 10.534 0 0 1-2.666-7.08v-.386h.906a35.56 35.56 0 0 0 9.334-1.334 44.05 44.05 0 0 1 1.213 2.52 19.068 19.068 0 0 0-5.72 3.214l-.4.32a28.012 28.012 0 0 0-2.667 2.746zm8 3.587a10.56 10.56 0 0 1-5.96-1.827 23.905 23.905 0 0 1 2.08-2.106l.427-.36a16.838 16.838 0 0 1 5.333-3.027 42.664 42.664 0 0 1 1.867 6.667c-1.2.438-2.469.66-3.747.653zm6.174-1.987a46.491 46.491 0 0 0-1.707-5.946h.453a.333.333 0 0 1 .16 0h.92c1.404.004 2.796.242 4.12.706a10.587 10.587 0 0 1-3.946 5.24zm-.174-8.68h-.826a2.075 2.075 0 0 0-.52 0 8.873 8.873 0 0 0-1.08.134h-.134a67.002 67.002 0 0 0-1.226-2.667 35.43 35.43 0 0 0 6.84-3.2 10.666 10.666 0 0 1 1.613 5.733v.68a15.305 15.305 0 0 0-4.667-.68z"/></svg>