<svg width="404" height="133" viewBox="0 0 404 133" fill="none" xmlns="http://www.w3.org/2000/svg">
<path d="M93.112 93H72.472L72.28 62.376L57.688 86.952H47.704L33.112 63.432V93H12.472V25.8H31.096L52.984 61.608L74.296 25.8H92.92L93.112 93ZM109.442 36.264C101.474 36.264 96.3857 31.464 96.3857 25.224C96.3857 18.984 101.474 14.184 109.442 14.184C117.41 14.184 122.498 18.6 122.498 24.84C122.498 31.464 117.41 36.264 109.442 36.264ZM98.5937 93V40.488H120.29V93H98.5937ZM153.33 93.96C135.186 93.96 122.322 82.728 122.322 66.696C122.322 50.76 135.186 39.528 153.33 39.528C166.098 39.528 175.698 45.384 179.154 55.08L162.354 63.336C160.146 58.44 156.978 56.424 153.234 56.424C148.338 56.424 144.306 59.88 144.306 66.696C144.306 73.608 148.338 77.064 153.234 77.064C156.978 77.064 160.146 75.048 162.354 70.152L179.154 78.408C175.698 88.104 166.098 93.96 153.33 93.96ZM219.689 39.528C231.785 39.528 241.193 46.536 241.193 63.048V93H219.497V66.792C219.497 60.264 217.001 57.768 213.065 57.768C208.649 57.768 204.905 60.552 204.905 68.328V93H183.209V21.768H204.905V44.712C208.937 41.256 214.025 39.528 219.689 39.528Z" fill="black"/>
<path d="M270.071 39.528C288.119 39.528 298.487 47.304 298.487 64.776V93H278.327V86.088C275.831 91.368 270.839 93.96 263.447 93.96C250.583 93.96 243.959 86.664 243.959 77.64C243.959 67.464 251.639 61.8 267.959 61.8H276.695C276.023 57.768 272.951 55.656 266.807 55.656C262.103 55.656 256.823 57.192 253.367 59.784L246.455 45.48C252.599 41.64 261.911 39.528 270.071 39.528ZM269.975 80.904C272.951 80.904 275.639 79.368 276.791 75.912V72.264H271.415C266.807 72.264 264.791 73.8 264.791 76.68C264.791 79.08 266.711 80.904 269.975 80.904Z" fill="black"/>
<path d="M306.68 93.472C288.632 93.472 278.264 85.696 278.264 68.224V40H298.424V46.912C300.92 41.632 305.912 39.04 313.304 39.04C326.168 39.04 332.792 46.336 332.792 55.36C332.792 65.536 325.112 71.2 308.792 71.2H300.056C300.728 75.232 303.8 77.344 309.944 77.344C314.648 77.344 319.928 75.808 323.384 73.216L330.296 87.52C324.152 91.36 314.84 93.472 306.68 93.472ZM306.776 52.096C303.8 52.096 301.112 53.632 299.96 57.088V60.736H305.336C309.944 60.736 311.96 59.2 311.96 56.32C311.96 53.92 310.04 52.096 306.776 52.096Z" fill="black"/>
<path d="M335.8 93V21.768H357.496V93H335.8Z" fill="black"/>
<ellipse cx="153.5" cy="67" rx="7.5" ry="8" fill="black"/>
</svg>
