<svg width="544" height="271" viewBox="0 0 544 271" fill="none" xmlns="http://www.w3.org/2000/svg">
<rect width="544" height="271" fill="white"/>
<path d="M180.112 175H159.472L159.28 144.376L144.688 168.952H134.704L120.112 145.432V175H99.472V107.8H118.096L139.984 143.608L161.296 107.8H179.92L180.112 175ZM196.442 118.264C188.474 118.264 183.386 113.464 183.386 107.224C183.386 100.984 188.474 96.184 196.442 96.184C204.41 96.184 209.498 100.6 209.498 106.84C209.498 113.464 204.41 118.264 196.442 118.264ZM185.594 175V122.488H207.29V175H185.594ZM240.33 175.96C222.186 175.96 209.322 164.728 209.322 148.696C209.322 132.76 222.186 121.528 240.33 121.528C253.098 121.528 262.698 127.384 266.154 137.08L249.354 145.336C247.146 140.44 243.978 138.424 240.234 138.424C235.338 138.424 231.306 141.88 231.306 148.696C231.306 155.608 235.338 159.064 240.234 159.064C243.978 159.064 247.146 157.048 249.354 152.152L266.154 160.408C262.698 170.104 253.098 175.96 240.33 175.96ZM306.689 121.528C318.785 121.528 328.193 128.536 328.193 145.048V175H306.497V148.792C306.497 142.264 304.001 139.768 300.065 139.768C295.649 139.768 291.905 142.552 291.905 150.328V175H270.209V103.768H291.905V126.712C295.937 123.256 301.025 121.528 306.689 121.528Z" fill="black"/>
<path d="M357.071 121.528C375.119 121.528 385.487 129.304 385.487 146.776V175H365.327V168.088C362.831 173.368 357.839 175.96 350.447 175.96C337.583 175.96 330.959 168.664 330.959 159.64C330.959 149.464 338.639 143.8 354.959 143.8H363.695C363.023 139.768 359.951 137.656 353.807 137.656C349.103 137.656 343.823 139.192 340.367 141.784L333.455 127.48C339.599 123.64 348.911 121.528 357.071 121.528ZM356.975 162.904C359.951 162.904 362.639 161.368 363.791 157.912V154.264H358.415C353.807 154.264 351.791 155.8 351.791 158.68C351.791 161.08 353.711 162.904 356.975 162.904Z" fill="black"/>
<path d="M393.68 175.472C375.632 175.472 365.264 167.696 365.264 150.224V122H385.424V128.912C387.92 123.632 392.912 121.04 400.304 121.04C413.168 121.04 419.792 128.336 419.792 137.36C419.792 147.536 412.112 153.2 395.792 153.2H387.056C387.728 157.232 390.8 159.344 396.944 159.344C401.648 159.344 406.928 157.808 410.384 155.216L417.296 169.52C411.152 173.36 401.84 175.472 393.68 175.472ZM393.776 134.096C390.8 134.096 388.112 135.632 386.96 139.088V142.736H392.336C396.944 142.736 398.96 141.2 398.96 138.32C398.96 135.92 397.04 134.096 393.776 134.096Z" fill="black"/>
<path d="M422.8 175V103.768H444.496V175H422.8Z" fill="black"/>
<ellipse cx="240.5" cy="149" rx="7.5" ry="8" fill="black"/>
</svg>
