<svg xmlns="http://www.w3.org/2000/svg" width="48" height="48" fill="none"><rect width="47" height="47" x=".5" y=".5" stroke="#F7F8F8" rx="7.5"/><path fill="#000" d="M32.93 12.527 10.196 21.99s-1.074.39-.991 1.11c.085.723.962 1.053.962 1.053l5.721 2.042s1.727 6.007 2.067 7.15c.34 1.14.612 1.167.612 1.167.317.146.604-.086.604-.086l3.696-3.575 5.76 4.686c1.559.72 2.126-.781 2.126-.781L34.8 13.099c0-1.443-1.868-.572-1.868-.572zm-4.024 20.487-6.163-5.011-1.912 1.849.42-3.934 8.215-7.785-11.198 6.648-4.966-1.773 18.95-7.887-3.346 17.893z"/></svg>