<svg xmlns="http://www.w3.org/2000/svg" width="48" height="48" fill="none"><rect width="47" height="47" x=".5" y=".5" stroke="#F7F8F8" rx="7.5"/><path fill="#000" d="M35.908 15.279a1.084 1.084 0 0 0-1.637-.931 8.106 8.106 0 0 1-2.029.86 5.582 5.582 0 0 0-3.655-1.347 5.668 5.668 0 0 0-5.659 5.486 11.951 11.951 0 0 1-7.381-4.251 1.096 1.096 0 0 0-.93-.396 1.08 1.08 0 0 0-.85.542 5.716 5.716 0 0 0-.262 5.166l-.002.002a1.128 1.128 0 0 0-.537.963c-.002.159.008.318.029.476a5.618 5.618 0 0 0 1.699 3.588 1.082 1.082 0 0 0-.072.834 5.638 5.638 0 0 0 2.56 3.165 8.086 8.086 0 0 1-3.89.486 1.083 1.083 0 0 0-.72 1.986 14.021 14.021 0 0 0 7.594 2.233 13.853 13.853 0 0 0 13.503-10.144c.383-1.282.578-2.612.58-3.95l-.001-.217a6.25 6.25 0 0 0 1.66-4.551zm-3.582 3.48a1.07 1.07 0 0 0-.253.76c.01.179.01.359.01.528a11.73 11.73 0 0 1-.493 3.338 11.575 11.575 0 0 1-11.424 8.59c-.931 0-1.859-.11-2.764-.327a10.27 10.27 0 0 0 3.188-1.693 1.085 1.085 0 0 0-.652-1.935 3.475 3.475 0 0 1-2.398-1.013c.162-.03.322-.068.482-.114a1.084 1.084 0 0 0-.087-2.105 3.467 3.467 0 0 1-2.437-1.87c.196.027.393.044.59.05a1.106 1.106 0 0 0 1.066-.754 1.083 1.083 0 0 0-.434-1.232 3.462 3.462 0 0 1-1.536-3.11 14.1 14.1 0 0 0 8.893 3.77 1.108 1.108 0 0 0 .885-.389 1.084 1.084 0 0 0 .224-.94 3.417 3.417 0 0 1-.095-.79 3.5 3.5 0 0 1 4.882-3.208c.437.19.83.469 1.154.819a1.076 1.076 0 0 0 .997.322 9.879 9.879 0 0 0 1.313-.349 7.242 7.242 0 0 1-1.111 1.652z"/></svg>